<svg version="1.2" xmlns="http://www.w3.org/2000/svg" viewBox="0 0 114 114" width="114" height="114">
	<title>Donut-svg</title>
	<defs>
		<linearGradient id="g1" x2="1" gradientUnits="userSpaceOnUse" gradientTransform="matrix(0,186.623,-192.462,0,57.188,-40.549)">
			<stop offset="0" stop-color="#ffae00"/>
			<stop offset="1" stop-color="#ffcd1e"/>
		</linearGradient>
		<linearGradient id="g2" x2="1" gradientUnits="userSpaceOnUse" gradientTransform="matrix(0,108.719,-112.121,0,57.188,1)">
			<stop offset="0" stop-color="#ff9f00"/>
			<stop offset="1" stop-color="#ffb800"/>
		</linearGradient>
		<linearGradient id="g3" x2="1" gradientUnits="userSpaceOnUse" gradientTransform="matrix(0,186.623,-192.462,0,57.188,-40.549)">
			<stop offset=".63" stop-color="#ffae00"/>
			<stop offset="1" stop-color="#ffcd1e"/>
		</linearGradient>
		<linearGradient id="g4" x2="1" gradientUnits="userSpaceOnUse" gradientTransform="matrix(0,108.719,-112.121,0,57.188,1)">
			<stop offset="0" stop-color="#ff9f00"/>
			<stop offset="1" stop-color="#ffb800"/>
		</linearGradient>
	</defs>
	<style>
		.s0 { fill: url(#g1);stroke: url(#g2);stroke-width: 2 } 
		.s1 { fill: url(#g3);stroke: url(#g4);stroke-width: 2 } 
		.s2 { fill: #ffffff } 
	</style>
	<g id="Layer">
		<path id="Layer" fill-rule="evenodd" class="s0" d="m2.2 57c0-30.2 24.8-55 55-55 30.2 0 55 24.8 55 55 0 15-6.3 28.6-16 38.5l-39 13.2-39-13.2c-9.8-9.9-16-23.5-16-38.5zm31 0c0 13.2 10.8 24 24 24 13.2 0 24-10.8 24-24 0-13.2-10.8-24-24-24-13.2 0-24 10.8-24 24z"/>
		<path id="Layer" fill-rule="evenodd" class="s1" d="m2.2 57c0-30.2 24.8-55 55-55 30.2 0 55 24.8 55 55 0 15-6.3 28.6-16 38.5l-39 13.2-39-13.2c-9.8-9.9-16-23.5-16-38.5zm31 0c0 13.2 10.8 24 24 24 13.2 0 24-10.8 24-24 0-13.2-10.8-24-24-24-13.2 0-24 10.8-24 24z"/>
		<path id="Layer" class="s2" d="m57.2 96.4c-9.9 0-9.9-6.6-19.7-6.6-9.8 0-9.8 6.6-19.8 6.6 10.1 10.1 24.1 16.6 39.5 16.6 15.4 0 29.4-6.5 39.5-16.6-10 0-9.9-6.6-19.8-6.6-9.9 0-9.9 6.6-19.7 6.6zm-30.5-28.6c-1.3-1.3-3.4-1.3-4.6 0-1.3 1.3-1.3 3.4 0 4.6l6.5 6.6c1.3 1.3 3.4 1.3 4.7 0 1.2-1.3 1.2-3.4 0-4.6zm30.5-40.4h13.1c1.8 0 3.3-1.4 3.3-3.3 0-1.8-1.5-3.2-3.3-3.2h-13.1c-1.9 0-3.3 1.4-3.3 3.2 0 1.9 1.4 3.3 3.3 3.3zm28.5 51.6l6.6-6.6c1.3-1.3 1.3-3.4 0-4.6-1.3-1.3-3.4-1.3-4.7 0l-6.5 6.5c-1.3 1.3-1.3 3.4 0 4.7 1.3 1.3 3.3 1.3 4.6 0zm1.9-32.8c1.3 1.2 3.4 1.2 4.7 0 1.3-1.3 1.3-3.4 0-4.7l-6.6-6.5c-1.3-1.3-3.3-1.3-4.6 0-1.3 1.2-1.3 3.3 0 4.6zm-61 0l6.6-6.6c1.2-1.2 1.2-3.3 0-4.6-1.3-1.3-3.4-1.3-4.7 0l-6.5 6.6c-1.3 1.2-1.3 3.3 0 4.6 1.2 1.3 3.3 1.3 4.6 0zm17.4-18.9c1.8 0 3.2-1.5 3.2-3.3 0-1.8-1.4-3.3-3.2-3.3-1.8 0-3.3 1.5-3.3 3.3 0 1.8 1.5 3.3 3.3 3.3zm-23 29.5c0-1.8-1.5-3.2-3.3-3.2-1.8 0-3.3 1.4-3.3 3.2 0 1.9 1.5 3.3 3.3 3.3 1.8 0 3.3-1.4 3.3-3.3zm75.5-3.2c-1.8 0-3.3 1.4-3.3 3.2 0 1.9 1.5 3.3 3.3 3.3 1.8 0 3.2-1.4 3.2-3.3 0-1.8-1.4-3.2-3.2-3.2z"/>
	</g>
</svg>