<svg version="1.2" xmlns="http://www.w3.org/2000/svg" viewBox="0 0 89 114" width="89" height="114">
	<title>Menu-svg</title>
	<defs>
		<clipPath clipPathUnits="userSpaceOnUse" id="cp1">
			<path d="m1 1h87v112h-87z"/>
		</clipPath>
		<linearGradient id="g1" x2="1" gradientUnits="userSpaceOnUse" gradientTransform="matrix(0,192.254,-148.56,0,44.5,-41.803)">
			<stop offset=".63" stop-color="#ffae00"/>
			<stop offset="1" stop-color="#ffcd1e"/>
		</linearGradient>
		<linearGradient id="g2" x2="1" gradientUnits="userSpaceOnUse" gradientTransform="matrix(0,112,-86.545,0,44.5,1)">
			<stop offset="0" stop-color="#ff9f00"/>
			<stop offset="1" stop-color="#ffb800"/>
		</linearGradient>
	</defs>
	<style>
		.s0 { fill: url(#g1);stroke: url(#g2);stroke-width: 2 } 
		.s1 { fill: #ffffff } 
	</style>
	<g id="Clip-Path" clip-path="url(#cp1)">
		<g id="Layer">
			<path id="Layer" class="s0" d="m2 18c0-8.8 7.2-16 16-16h53c8.8 0 16 7.2 16 16v78c0 8.8-7.2 16-16 16h-53c-8.8 0-16-7.2-16-16z"/>
			<path id="Layer" class="s1" d="m69.9 57.1c0-2-1.6-3.5-3.6-3.5h-3.5v-3.6c0-8.6-6.2-15.8-14.3-17.4v-3.9c0-2-1.6-3.6-3.6-3.6-1.9 0-3.5 1.6-3.5 3.6v3.9c-8.2 1.6-14.3 8.8-14.3 17.4v3.6h-3.6c-2 0-3.5 1.5-3.5 3.5 0 2 1.5 3.6 3.5 3.6h42.8c2 0 3.6-1.6 3.6-3.6zm-10.7 17.8h-28.5c-2 0-3.6 1.6-3.6 3.5 0 2 1.6 3.6 3.6 3.6h28.5c2 0 3.6-1.6 3.6-3.6 0-1.9-1.6-3.5-3.6-3.5z"/>
		</g>
	</g>
</svg>