<svg version="1.2" xmlns="http://www.w3.org/2000/svg" viewBox="0 0 74 114" width="74" height="114">
	<title>Invoice-svg</title>
	<defs>
		<linearGradient id="g1" x2="1" gradientUnits="userSpaceOnUse" gradientTransform="matrix(0,192.255,-122.673,0,37.094,-41.803)">
			<stop offset=".63" stop-color="#ffae00"/>
			<stop offset="1" stop-color="#ffcd1e"/>
		</linearGradient>
		<linearGradient id="g2" x2="1" gradientUnits="userSpaceOnUse" gradientTransform="matrix(0,112,-71.464,0,37.094,1)">
			<stop offset="0" stop-color="#ff9f00"/>
			<stop offset="1" stop-color="#ffb800"/>
		</linearGradient>
	</defs>
	<style>
		.s0 { fill: url(#g1);stroke: url(#g2);stroke-width: 2 } 
		.s1 { fill: #ffffff } 
	</style>
	<g id="Layer">
		<path id="Layer" class="s0" d="m3.4 111.8c-0.8-0.3-1.4-1.2-1.4-2.1v-105.4c0-1.3 1-2.3 2.3-2.3h65.6c1.3 0 2.3 1 2.3 2.3q0 0 0 0v105.4c0 0.9-0.6 1.8-1.4 2.1-0.8 0.4-1.8 0.2-2.5-0.5-2.7-2.7-7.2-2.7-9.9 0-0.9 0.9-2.3 0.9-3.2 0-2.8-2.7-7.2-2.7-9.9 0-0.9 0.9-2.4 0.9-3.3 0-2.7-2.7-7.1-2.7-9.9 0-0.8 0.9-2.3 0.9-3.2 0-2.7-2.7-7.1-2.7-9.9 0-0.9 0.9-2.3 0.9-3.2 0-2.7-2.7-7.2-2.7-9.9 0-0.7 0.7-1.6 0.9-2.5 0.5z"/>
		<path id="Layer" class="s1" d="m37.1 36.3c-1.8 0-3.3-1.5-3.3-3.3 0-1.8 1.5-3.3 3.3-3.3 1.8 0 3.3 1.5 3.3 3.3 0 1.8 1.4 3.3 3.3 3.3 1.8 0 3.2-1.5 3.2-3.3 0-4.3-2.7-7.9-6.5-9.2v-3.9c0-1.8-1.5-3.3-3.3-3.3-1.8 0-3.3 1.5-3.3 3.3v3.9c-3.8 1.3-6.5 4.9-6.5 9.2 0 5.4 4.4 9.9 9.8 9.9 1.8 0 3.3 1.4 3.3 3.2 0 1.9-1.5 3.3-3.3 3.3-1.8 0-3.3-1.4-3.3-3.3 0-1.8-1.5-3.2-3.3-3.2-1.8 0-3.2 1.4-3.2 3.2 0 4.3 2.7 7.9 6.5 9.3v3.9c0 1.8 1.5 3.3 3.3 3.3 1.8 0 3.3-1.5 3.3-3.3v-3.9c3.8-1.4 6.5-5 6.5-9.3 0-5.4-4.4-9.8-9.8-9.8zm0 32.8h-19.7c-1.8 0-3.3 1.5-3.3 3.3 0 1.8 1.5 3.3 3.3 3.3h19.7c1.8 0 3.3-1.5 3.3-3.3 0-1.8-1.5-3.3-3.3-3.3zm0 13.1h-19.7c-1.8 0-3.3 1.5-3.3 3.3 0 1.8 1.5 3.3 3.3 3.3h19.7c1.8 0 3.3-1.5 3.3-3.3 0-1.8-1.5-3.3-3.3-3.3zm13.1-6.5h6.6c1.8 0 3.3-1.5 3.3-3.3 0-1.8-1.5-3.3-3.3-3.3h-6.6c-1.8 0-3.3 1.5-3.3 3.3 0 1.8 1.5 3.3 3.3 3.3zm6.6 6.5h-6.6c-1.8 0-3.3 1.5-3.3 3.3 0 1.8 1.5 3.3 3.3 3.3h6.6c1.8 0 3.3-1.5 3.3-3.3 0-1.8-1.5-3.3-3.3-3.3z"/>
	</g>
</svg>